<svg width="32" height="32" viewBox="0 0 32 32" fill="none" xmlns="http://www.w3.org/2000/svg">
<rect width="32" height="31.9971" rx="8" fill="#EAEFF3"/>
<path d="M10.1145 3.04303C11.5059 2.89161 10.0131 4.52406 10.0774 4.919L10.132 4.94049C10.5989 4.84188 11.2362 3.52137 11.7063 3.27642C11.9925 3.12754 12.311 3.52931 12.2385 3.74322C12.0517 4.29171 11.5247 4.71881 11.3098 5.26373L11.3049 5.2774C11.5347 5.4517 12.0169 5.66498 12.3 5.68951C12.8288 5.73532 13.4768 5.68719 14.0197 5.6817C15.418 5.66415 16.8223 5.62548 18.2199 5.67291C18.9129 5.6931 19.5449 5.70803 20.2287 5.84869C20.9624 5.99964 21.7282 6.26201 21.9699 7.06158C22.018 7.22075 22.0507 7.4802 21.9641 7.63189C21.7507 7.83406 21.4009 7.53587 21.1135 7.53717C20.962 7.6137 20.9704 7.95251 20.9172 8.15142C20.7377 8.82285 20.464 9.66787 20.1779 10.2891C20.774 10.5964 21.4449 11.9824 21.8908 12.0753C22.1309 11.9131 21.1967 10.8616 21.3117 10.3419C21.3717 10.2422 21.4768 10.1729 21.5842 10.1348C21.8876 10.0317 22.1312 10.3334 22.2522 10.5684C22.9834 11.9909 23.4816 13.4989 24.4162 14.8155C24.744 15.2776 24.3756 15.6601 24.0041 15.9249C23.8065 16.0657 23.6604 16.1583 23.4201 16.2462C23.1799 16.1666 22.9803 16.0572 22.7287 15.9883C22.4409 16.0718 22.2061 16.2424 21.9377 16.295C21.5424 16.3723 21.5895 15.8648 21.3381 15.6944C21.2002 15.6013 21.0605 15.6476 20.8967 15.6749C20.7049 15.9621 20.3969 16.8948 20.2502 17.252C19.8503 18.2257 19.4791 19.1435 19.1653 20.1514C20.1697 20.3307 21.6208 20.2944 21.9709 21.5235C22.2937 22.6572 21.292 21.9346 21.0608 22.0254C21.0183 22.107 21.0081 22.1786 20.9895 22.2676C20.8815 22.7845 20.7286 23.302 20.5481 23.7989C20.3268 24.3992 20.0945 24.9954 19.8508 25.587C19.6512 26.0816 19.3899 26.6961 19.2863 27.212C20.0717 27.2373 20.9682 27.2179 21.759 27.2178H26.3059L26.3069 28.962L21.9279 28.9639H5.6965C5.68888 28.3823 5.68977 27.8004 5.69943 27.2188L12.7326 27.2178C12.5325 26.4052 12.18 25.6388 11.8879 24.8526C11.6834 24.3337 11.5009 23.805 11.2795 23.293C11.1826 23.0689 11.0659 22.9605 10.8127 22.9805C10.498 22.9998 10.5393 23.4999 10.2717 23.6075C9.99336 23.719 9.55002 23.4695 9.27072 23.3731C9.04251 23.4415 8.77828 23.5474 8.55197 23.6319C8.42638 23.5734 8.31386 23.5075 8.20822 23.4366C7.12062 22.7058 7.35701 22.4291 8.0217 21.4844C8.19964 21.2315 8.4802 20.611 8.62716 20.2901C8.88672 19.7145 9.15061 19.1408 9.41916 18.5694C9.54103 18.3149 9.88439 17.4716 10.2014 17.4688C11.4175 17.4582 10.018 18.9746 10.0666 19.3799L10.1125 19.4151C10.4903 19.3931 11.2208 18.017 11.5988 17.794C11.7179 17.7238 11.7733 17.7094 11.9026 17.667C11.6764 16.7851 11.1734 15.9085 11.0373 14.9844C11.0243 14.8963 11.0068 14.7663 10.9709 14.6885C10.6979 14.5689 9.98781 15.1591 10.0012 14.542C10.0249 13.4533 11.0798 13.0339 11.9963 12.917C12.1543 12.8969 12.6129 12.8539 12.7278 12.794C12.8321 12.5622 11.432 9.33639 11.2873 8.85943C11.2458 8.72317 11.0287 8.46748 10.8508 8.49322C10.552 8.5367 10.5141 8.90443 10.3088 9.12994C9.84694 9.19884 9.72437 9.0157 9.27658 8.89556C9.00073 8.96177 8.83712 9.03625 8.57443 9.14263C8.19484 9.018 7.30425 8.41954 7.4924 7.9356C7.66677 7.4879 8.03999 7.08445 8.25802 6.64947C8.63737 5.89241 8.97117 5.11433 9.33029 4.34771C9.49134 4.00959 9.79675 3.21012 10.1145 3.04303ZM15.7668 24.6045C15.5844 24.6767 15.3087 24.7996 15.2541 24.9952C15.0977 25.5558 15.3445 26.6843 15.4592 27.2159L16.2658 27.2198C16.3537 27.2206 16.4674 27.2349 16.5315 27.1856C16.7403 26.7618 16.8813 25.4304 16.758 24.96C16.6737 24.6383 16.0636 24.5726 15.7668 24.6045ZM18.384 25.1876C18.1888 25.2701 18.1164 25.4385 18.0422 25.6368C17.8543 26.1389 17.6727 26.6919 17.5354 27.21L17.882 27.2208C17.9744 27.2218 18.1342 27.239 18.1985 27.1553C18.3816 26.9165 18.4608 26.5945 18.549 26.3096C18.6281 26.0543 18.7006 25.7753 18.6975 25.5069C18.6949 25.2859 18.5661 25.2356 18.384 25.1876ZM13.4865 25.21C13.3842 25.288 13.3249 25.3591 13.3215 25.4932C13.3112 25.9103 13.5867 26.9269 13.8576 27.2081C14.0156 27.2146 14.1671 27.2221 14.3254 27.2198L14.4211 27.211C14.5007 27.0567 13.9596 25.3642 13.7033 25.2344C13.651 25.2081 13.548 25.2065 13.4865 25.21ZM12.175 18.5196C12.0008 18.6394 11.2399 19.5314 11.3801 19.7676C11.4604 19.9021 11.9645 20.0632 12.1457 20.1075C12.3047 20.1384 12.657 20.2217 12.8039 20.169C12.8542 20.0004 12.3585 18.5708 12.175 18.5196ZM13.4944 17.8838C13.1912 18.0609 13.3314 18.4839 13.4094 18.7706C13.5175 19.1681 13.6615 19.5913 13.8576 19.9522C13.9659 20.1435 14.0469 20.1337 14.2522 20.1172C14.3522 20.1063 14.3903 20.1211 14.4524 20.0645C14.4981 19.6051 14.0681 18.4305 13.8117 18.0088C13.743 17.8958 13.6164 17.8797 13.4944 17.8838ZM18.2961 17.8809C18.0241 18.1241 17.5759 19.5652 17.5549 19.9268C17.552 19.9845 17.5517 20.0429 17.552 20.1006L18.0119 20.1075C18.3063 19.9886 18.6465 18.7098 18.6936 18.3741C18.7369 18.0637 18.6394 17.8577 18.2961 17.8809ZM15.7678 17.2715C15.5496 17.3645 15.4437 17.4103 15.2727 17.587C15.1219 18.1353 15.3292 19.5347 15.4953 20.0743C15.7648 20.0827 16.0353 20.0856 16.3049 20.0821C16.4111 20.08 16.4172 20.0954 16.4983 20.0489C16.6962 19.6029 16.894 18.1462 16.758 17.6504C16.6633 17.3055 16.0868 17.2588 15.7678 17.2715ZM19.8401 11.1807C19.7057 11.3889 19.2044 12.5958 19.3049 12.7862C19.4602 12.8594 19.8781 12.7614 20.0461 12.712C20.2149 12.6562 20.4924 12.5672 20.6272 12.4551C20.6653 12.3694 20.6655 12.3399 20.6301 12.2413C20.5481 12.013 20.0236 11.2763 19.8401 11.1807ZM18.3625 10.7383C18.1731 10.8205 18.0958 11.015 18.0256 11.209C17.8498 11.6951 17.6492 12.2686 17.5373 12.7715L17.9475 12.7833C18.0707 12.7642 18.185 12.7426 18.2561 12.629C18.5101 12.2228 18.7471 11.3251 18.6731 10.8692C18.6709 10.8558 18.6677 10.8425 18.6653 10.8292C18.5499 10.7855 18.4839 10.7563 18.3625 10.7383ZM13.5315 10.7393C13.4704 10.7668 13.3653 10.7972 13.3498 10.8702C13.2423 11.3811 13.5213 11.992 13.6906 12.4708C13.8049 12.7937 14.0044 12.7535 14.2932 12.7481C14.3912 12.7365 14.4071 12.7538 14.4553 12.6944C14.4339 12.4222 14.0042 11.0345 13.7561 10.8087C13.7028 10.7603 13.6055 10.7402 13.5315 10.7393ZM15.8615 10.1036C15.6733 10.1742 15.3317 10.2932 15.2697 10.4932C15.0889 11.0771 15.3438 12.1568 15.4543 12.7305C15.7201 12.7482 15.9586 12.7502 16.2238 12.751L16.5735 12.7491C16.7054 11.8466 17.3616 10.0495 15.8615 10.1036Z" fill="#060D29"/>
</svg>
