<svg width="32" height="32" viewBox="0 0 32 32" fill="none" xmlns="http://www.w3.org/2000/svg">
<rect width="32" height="31.9971" rx="2" fill="#EAEFF3"/>
<path d="M10.1145 3.04256C11.5054 2.89143 10.0122 4.52452 10.0764 4.91951L10.132 4.941C10.599 4.84237 11.2362 3.52048 11.7063 3.27596C11.9924 3.1274 12.311 3.52988 12.2385 3.74373C12.0517 4.29222 11.5247 4.71932 11.3098 5.26424L11.3049 5.27791C11.5347 5.45208 12.0159 5.66529 12.299 5.69002C12.8279 5.73587 13.4767 5.68769 14.0197 5.68221C15.4178 5.66466 16.8215 5.62601 18.219 5.67342C18.9121 5.69361 19.5447 5.70848 20.2287 5.8492C20.9624 6.00015 21.7282 6.26252 21.9699 7.06209C22.018 7.22127 22.0507 7.48075 21.9641 7.6324C21.7506 7.83478 21.4 7.53618 21.1125 7.53768C20.9614 7.61457 20.9704 7.95318 20.9172 8.15193C20.7377 8.82317 20.4639 9.66746 20.1779 10.2887C20.7741 10.5958 21.4449 11.9829 21.8908 12.0758C22.1309 11.9136 21.196 10.8622 21.3108 10.3424C21.3706 10.2428 21.4759 10.1734 21.5832 10.1353C21.8869 10.0317 22.1312 10.3337 22.2522 10.5689C22.9834 11.9914 23.4806 13.4994 24.4153 14.816C24.7435 15.2783 24.3748 15.6605 24.0031 15.9254C23.8056 16.0662 23.6595 16.1588 23.4192 16.2467C23.1792 16.1671 22.9801 16.0577 22.7287 15.9888C22.4407 16.0723 22.2053 16.243 21.9367 16.2955C21.5417 16.3724 21.5889 15.865 21.3371 15.6949C21.1993 15.6019 21.0603 15.6481 20.8967 15.6754C20.7049 15.9626 20.3969 16.8953 20.2502 17.2525C19.8503 18.2263 19.4781 19.1439 19.1643 20.1519C20.1688 20.3313 21.6208 20.2946 21.9709 21.524C22.2937 22.6575 21.2922 21.9353 21.0608 22.026C21.0183 22.1075 21.0081 22.1791 20.9895 22.2681C20.8815 22.785 20.7286 23.3025 20.5481 23.7994C20.3268 24.3997 20.0945 24.9959 19.8508 25.5875C19.6512 26.0822 19.3889 26.6965 19.2854 27.2125C20.0707 27.2378 20.9672 27.2185 21.758 27.2183L26.3059 27.2174L26.3069 28.9625L21.9279 28.9635L5.6965 28.9644C5.68888 28.3828 5.68977 27.801 5.69943 27.2193L12.7326 27.2174C12.5325 26.4049 12.1799 25.6391 11.8879 24.8531C11.6834 24.3342 11.5008 23.8055 11.2795 23.2935C11.1826 23.0694 11.0659 22.961 10.8127 22.981C10.4978 23.0001 10.5394 23.5004 10.2717 23.608C9.99337 23.7197 9.55007 23.4701 9.27072 23.3736C9.04234 23.4421 8.77745 23.5479 8.55099 23.6324C8.42557 23.5739 8.31374 23.507 8.20822 23.4361C7.12093 22.7055 7.35706 22.4295 8.0217 21.4849C8.19964 21.232 8.48021 20.6115 8.62717 20.2906C8.88672 19.715 9.15061 19.1414 9.41916 18.5699C9.54103 18.3154 9.88439 17.4721 10.2014 17.4693C11.4171 17.4589 10.018 18.9752 10.0666 19.3804L10.1125 19.4156C10.4904 19.3931 11.2208 18.0175 11.5988 17.7945C11.7178 17.7244 11.7732 17.71 11.9026 17.6676C11.6764 16.7857 11.1735 15.909 11.0373 14.9849C11.0243 14.8968 11.0058 14.7668 10.9699 14.689C10.6967 14.5701 9.98782 15.1593 10.0012 14.5426C10.0248 13.4539 11.0789 13.0345 11.9953 12.9176C12.1528 12.8975 12.6112 12.8544 12.7268 12.7945C12.8319 12.5641 11.4311 9.33701 11.2863 8.85994C11.2447 8.72364 11.0287 8.468 10.8508 8.49373C10.5517 8.53709 10.5134 8.90492 10.3078 9.13045C9.8462 9.1992 9.72347 9.01618 9.2756 8.89607C9.00003 8.96225 8.83697 9.03682 8.57443 9.14314C8.19496 9.01866 7.30421 8.42015 7.4924 7.93611C7.66678 7.48841 8.03999 7.08497 8.25802 6.64998C8.63737 5.89292 8.97117 5.11484 9.33029 4.34822C9.49136 4.01006 9.79673 3.20954 10.1145 3.04256ZM15.7668 24.6051C15.5844 24.6772 15.3088 24.8 15.2541 24.9957C15.0978 25.5562 15.3445 26.6836 15.4592 27.2154L16.2658 27.2203C16.3535 27.2211 16.4664 27.2351 16.5305 27.1861C16.7394 26.7625 16.8812 25.4311 16.758 24.9605C16.6737 24.6389 16.0636 24.5731 15.7668 24.6051ZM18.383 25.1881C18.1881 25.2707 18.1154 25.439 18.0412 25.6373C17.8534 26.1392 17.6727 26.6916 17.5354 27.2096L17.882 27.2213C17.9744 27.2223 18.1342 27.2395 18.1985 27.1558C18.3816 26.9169 18.4608 26.5941 18.549 26.3092C18.6281 26.054 18.6996 25.7757 18.6965 25.5074C18.6939 25.2862 18.5654 25.2362 18.383 25.1881ZM13.4856 25.2105C13.3833 25.2885 13.3239 25.3595 13.3205 25.4937C13.3102 25.9109 13.5867 26.9276 13.8576 27.2086C14.0154 27.2151 14.1663 27.2225 14.3244 27.2203L14.4211 27.2115C14.5007 27.0572 13.9596 25.3648 13.7033 25.2349C13.651 25.2084 13.5471 25.207 13.4856 25.2105ZM12.174 18.5201C11.9993 18.6407 11.2391 19.532 11.3791 19.7681C11.4589 19.9027 11.9644 20.0636 12.1457 20.108C12.3048 20.139 12.6571 20.2222 12.8039 20.1695C12.8542 20.0009 12.3573 18.5701 12.174 18.5201ZM13.4944 17.8844C13.191 18.0614 13.3314 18.4844 13.4094 18.7711C13.5175 19.1686 13.6615 19.5919 13.8576 19.9527C13.9659 20.1439 14.0469 20.1342 14.2522 20.1178C14.3521 20.1068 14.3903 20.1217 14.4524 20.065C14.4981 19.6057 14.0681 18.4311 13.8117 18.0094C13.743 17.8963 13.6164 17.8802 13.4944 17.8844ZM18.2961 17.8814C18.0241 18.1246 17.5758 19.5658 17.5549 19.9273C17.552 19.9851 17.5507 20.0434 17.551 20.1012L18.0119 20.108C18.3065 19.9886 18.6468 18.7085 18.6936 18.3736C18.7367 18.0635 18.6391 17.8584 18.2961 17.8814ZM15.7678 17.2721C15.5495 17.365 15.4438 17.4108 15.2727 17.5875C15.1218 18.1359 15.3292 19.5353 15.4953 20.0748C15.63 20.079 15.7649 20.0814 15.8996 20.0826H16.4104C16.4354 20.0805 16.4575 20.0728 16.4983 20.0494C16.6962 19.6034 16.8939 18.1468 16.758 17.651C16.6633 17.306 16.0868 17.2593 15.7678 17.2721ZM19.8401 11.1812C19.7058 11.3893 19.204 12.5955 19.3039 12.7867C19.459 12.8599 19.8768 12.762 20.0451 12.7125C20.2138 12.6568 20.4912 12.5677 20.6262 12.4556C20.6645 12.3696 20.6657 12.3399 20.6301 12.2408C20.5478 12.0123 20.0237 11.2772 19.8401 11.1812ZM18.3625 10.7388C18.1731 10.821 18.0958 11.0155 18.0256 11.2096C17.8498 11.6956 17.6492 12.2691 17.5373 12.7721L17.9475 12.7838C18.0707 12.7647 18.185 12.7431 18.2561 12.6295C18.5101 12.2232 18.7461 11.3255 18.6721 10.8697C18.6699 10.8563 18.6677 10.843 18.6653 10.8297C18.5498 10.786 18.4839 10.7568 18.3625 10.7388ZM13.5315 10.7398C13.4704 10.7673 13.3643 10.7975 13.3488 10.8707C13.2414 11.3816 13.5213 11.9926 13.6906 12.4713C13.805 12.7941 14.0043 12.754 14.2932 12.7486C14.3912 12.737 14.4071 12.7543 14.4553 12.6949C14.434 12.4229 14.0042 11.035 13.7561 10.8092C13.7028 10.7607 13.6056 10.7407 13.5315 10.7398ZM15.8615 10.1041C15.6734 10.1747 15.3317 10.2937 15.2697 10.4937C15.0889 11.0777 15.3438 12.1574 15.4543 12.731C15.7201 12.7487 15.9586 12.7507 16.2238 12.7515L16.5735 12.7496C16.7054 11.8472 17.3613 10.0502 15.8615 10.1041Z" fill="#060D29"/>
</svg>
