<svg width="126" height="54" viewBox="0 0 126 54" fill="none" xmlns="http://www.w3.org/2000/svg">
<path fill-rule="evenodd" clip-rule="evenodd" d="M5.49645 10.8988C7.22625 10.7105 5.36994 12.7414 5.45056 13.2318L5.51892 13.2581C6.0992 13.1356 6.89074 11.4929 7.47497 11.1888C7.83082 11.0037 8.22761 11.5051 8.13708 11.7708C7.90481 12.4523 7.24984 12.9824 6.98278 13.6595L6.97692 13.6761C7.26246 13.8926 7.86038 14.1581 8.21228 14.1888C8.86956 14.2458 9.67601 14.1858 10.3509 14.179C12.0885 14.1572 13.8329 14.1094 15.5697 14.1683C16.4311 14.1934 17.2168 14.2122 18.0668 14.387C18.9786 14.5746 19.9305 14.9002 20.2308 15.8939C20.2906 16.0917 20.3316 16.4143 20.224 16.6029C19.9588 16.8544 19.5236 16.4831 19.1664 16.4847C18.9781 16.5798 18.9893 17.0012 18.9232 17.2484C18.7001 18.0828 18.3588 19.1325 18.0033 19.9046C18.7441 20.286 19.5779 22.0084 20.1322 22.1243C20.4306 21.9228 19.269 20.6158 19.4125 19.97C19.4869 19.8465 19.6171 19.7615 19.7504 19.7142C20.1278 19.5854 20.4311 19.96 20.5814 20.2523C21.4902 22.0201 22.1083 23.8944 23.2699 25.5306C23.6777 26.1052 23.22 26.5804 22.7582 26.9095C22.5126 27.0845 22.3313 27.1998 22.0326 27.3089C21.734 27.21 21.4859 27.0742 21.1732 26.9886C20.8155 27.0924 20.5235 27.3042 20.1898 27.3695C19.6987 27.4651 19.7576 26.8338 19.4447 26.6224C19.2734 26.5068 19.1003 26.5641 18.8968 26.598C18.6585 26.9549 18.2765 28.1138 18.0941 28.5579C17.5971 29.7682 17.1345 30.9087 16.7445 32.1615C17.9928 32.3844 19.7967 32.3396 20.2318 33.8675C20.6327 35.2757 19.3886 34.378 19.1009 34.4906C19.0481 34.592 19.0353 34.6816 19.0121 34.7923C18.8778 35.4344 18.6885 36.0773 18.4642 36.6947C18.1891 37.4409 17.8999 38.1819 17.597 38.9173C17.3489 39.5321 17.0235 40.2956 16.8949 40.9368C17.871 40.9684 18.9852 40.9448 19.9681 40.9447L25.6195 40.9437L25.6215 43.1117L20.1791 43.1136H0.00622042C-0.00325077 42.3908 -0.00187335 41.6675 0.0101267 40.9447L8.75134 40.9437C8.5026 39.9338 8.06451 38.9813 7.70153 38.0042C7.44731 37.3593 7.2198 36.7021 6.9447 36.0658C6.82434 35.7874 6.67918 35.6522 6.36462 35.6771C5.97356 35.701 6.02533 36.3236 5.69274 36.4574C5.34685 36.5962 4.79577 36.2852 4.4486 36.1654C4.16486 36.2504 3.83645 36.3826 3.55505 36.4876C3.39905 36.415 3.25951 36.3326 3.12829 36.2445C1.77662 35.3363 2.07078 34.9927 2.89685 33.8187C3.118 33.5043 3.46619 32.733 3.6488 32.3343C3.9714 31.6189 4.2994 30.9059 4.63317 30.1956C4.78465 29.8794 5.21091 28.8319 5.60485 28.8284C7.11617 28.8152 5.37807 30.6984 5.43786 31.2025L5.4945 31.2464C5.96391 31.2191 6.87118 29.5107 7.34118 29.2327C7.48945 29.1453 7.55895 29.1274 7.72009 29.0745C7.439 27.9784 6.813 26.8882 6.64392 25.7396C6.62781 25.6302 6.60534 25.47 6.56091 25.3734C6.22165 25.2247 5.33926 25.9575 5.35583 25.1908C5.38518 23.8376 6.69628 23.3164 7.83532 23.1712C8.0314 23.1462 8.60163 23.0924 8.7445 23.0179C8.87362 22.729 7.13499 18.7234 6.95446 18.1292C6.90314 17.96 6.63374 17.6412 6.41247 17.6732C6.04063 17.727 5.99315 18.1848 5.73767 18.4652C5.16394 18.5506 5.01196 18.3224 4.45544 18.1732C4.11265 18.2554 3.90978 18.3476 3.58337 18.4798C3.11169 18.325 2.0036 17.5813 2.23767 16.9798C2.45442 16.4233 2.91984 15.9219 3.19079 15.3812C3.66206 14.4406 4.07569 13.4742 4.52185 12.5218C4.72197 12.1017 5.1015 11.1064 5.49645 10.8988ZM12.5209 37.6966C12.2942 37.7862 11.9511 37.9379 11.8832 38.181C11.6886 38.8776 11.9955 40.2799 12.1381 40.9408L13.141 40.9466C13.2501 40.9476 13.3905 40.9648 13.4701 40.9036C13.7298 40.377 13.9056 38.7214 13.7523 38.137C13.6471 37.7376 12.8896 37.6569 12.5209 37.6966ZM15.7728 38.4202C15.5302 38.5228 15.4403 38.7324 15.348 38.9788C15.1145 39.6028 14.8898 40.29 14.7191 40.9339L15.1498 40.9476C15.2645 40.9489 15.4626 40.9695 15.5424 40.8656C15.7698 40.5687 15.8683 40.1687 15.9779 39.8148C16.0762 39.4975 16.1663 39.1512 16.1625 38.8177C16.1593 38.543 15.9993 38.48 15.7728 38.4202ZM9.68591 38.4495C9.55893 38.5464 9.48495 38.6344 9.48083 38.8011C9.46825 39.3198 9.81122 40.5829 10.1478 40.932C10.3441 40.9401 10.5321 40.9494 10.7289 40.9466L10.848 40.9349C10.9468 40.7433 10.2751 38.6432 9.95642 38.4798C9.89132 38.4469 9.76234 38.4452 9.68591 38.4495ZM8.05603 30.1341C7.83909 30.2836 6.89461 31.3914 7.06872 31.6849C7.16861 31.852 7.7947 32.0517 8.01989 32.1068C8.21731 32.1452 8.65558 32.2494 8.83825 32.1839C8.90127 31.9754 8.28387 30.1963 8.05603 30.1341ZM9.69665 29.3441C9.31982 29.5641 9.49331 30.0894 9.59021 30.4456C9.72451 30.9395 9.90414 31.465 10.1478 31.9134C10.2825 32.1514 10.3829 32.1399 10.6381 32.1195C10.7624 32.1059 10.81 32.1244 10.8871 32.054C10.9439 31.483 10.4088 30.0222 10.0902 29.4984C10.0047 29.3583 9.84812 29.339 9.69665 29.3441ZM15.6634 29.3402C15.3253 29.6431 14.7693 31.4345 14.7435 31.8831C14.74 31.9549 14.7383 32.0271 14.7386 32.099L15.3109 32.1077C15.677 31.9597 16.1004 30.3687 16.1586 29.9525C16.2124 29.5667 16.0902 29.3113 15.6634 29.3402ZM12.5218 28.5824C12.2505 28.6979 12.1193 28.7553 11.9066 28.9749C11.7192 29.6565 11.9775 31.3952 12.184 32.0658C12.5188 32.0762 12.8539 32.0799 13.1888 32.0755C13.321 32.0729 13.3285 32.0923 13.4291 32.0345C13.6751 31.4803 13.9214 29.6691 13.7523 29.0531C13.6343 28.6247 12.9182 28.5665 12.5218 28.5824ZM17.5824 21.013C17.4154 21.2719 16.7919 22.7733 16.9174 23.0091C17.1105 23.0999 17.6295 22.9778 17.8383 22.9163C18.0479 22.8471 18.3923 22.7363 18.5599 22.597C18.6075 22.4901 18.6081 22.4535 18.5638 22.3304C18.4615 22.0463 17.8102 21.1313 17.5824 21.013ZM15.7465 20.4642C15.5108 20.5664 15.4148 20.8079 15.3275 21.0492C15.1091 21.6531 14.8601 22.3647 14.7211 22.9896L15.2308 23.0042C15.384 22.9805 15.5253 22.954 15.6136 22.8128C15.9293 22.308 16.2232 21.1929 16.1312 20.6263C16.1285 20.6098 16.1264 20.593 16.1234 20.5765C15.9799 20.5221 15.8973 20.4865 15.7465 20.4642ZM9.74255 20.4652C9.66658 20.4993 9.53514 20.5364 9.51599 20.6273C9.38241 21.2622 9.72934 22.0216 9.93981 22.6165C10.0819 23.0181 10.3306 22.9679 10.6898 22.9613C10.8114 22.9469 10.8311 22.9686 10.891 22.8949C10.8647 22.5573 10.3303 20.8309 10.0218 20.5501C9.95561 20.4901 9.83451 20.4663 9.74255 20.4652ZM12.6381 19.6742C12.4042 19.7619 11.9798 19.91 11.9027 20.1585C11.6779 20.8843 11.9949 22.2269 12.1322 22.9398C12.4624 22.9617 12.7587 22.9631 13.0883 22.9642L13.5228 22.9622C13.6868 21.8407 14.5024 19.6069 12.6381 19.6742Z" fill="#060D29"/>
<path d="M33.7022 43V10.8393H36.711L55.6107 37.8516H55.7221V10.8393H58.7309V43H55.7221L36.8224 15.9877H36.711V43H33.7022ZM64.7708 43V10.8393H68.2699L80.1936 39.1666H80.3274L92.2511 10.8393H95.7502V43H92.8975V16.5672H92.7414L81.5755 43H78.9233L67.7796 16.5672H67.6236V43H64.7708ZM110.215 43V13.6029H99.606V10.8393H123.899V13.6029H113.268V43H110.215Z" fill="#060D29"/>
</svg>
